<mxfile host="app.diagrams.net" modified="2021-12-10T19:49:43.611Z" agent="5.0 (Windows NT 10.0; Win64; x64) AppleWebKit/537.36 (KHTML, like Gecko) Chrome/96.0.4664.93 Safari/537.36" etag="-zp55beHkpAuYN5dhJl8" version="15.9.4" type="github" pages="2">
  <diagram name="Page-1" id="55a83fd1-7818-8e21-69c5-c3457e3827bb">
    <mxGraphModel dx="1422" dy="772" grid="1" gridSize="10" guides="1" tooltips="1" connect="1" arrows="1" fold="1" page="1" pageScale="1" pageWidth="1100" pageHeight="850" background="none" math="0" shadow="0">
      <root>
        <mxCell id="0" />
        <mxCell id="1" parent="0" />
        <mxCell id="69ecfefc5c41e42c-18" style="edgeStyle=none;rounded=0;html=1;labelBackgroundColor=none;endArrow=none;strokeWidth=2;fontFamily=Verdana;fontSize=22" parent="1" source="69ecfefc5c41e42c-1" target="69ecfefc5c41e42c-2" edge="1">
          <mxGeometry relative="1" as="geometry">
            <mxPoint x="560" y="290" as="targetPoint" />
          </mxGeometry>
        </mxCell>
        <mxCell id="69ecfefc5c41e42c-1" value="10.8.0.1" style="image;html=1;labelBackgroundColor=#ffffff;image=img/lib/clip_art/networking/Wireless_Router_128x128.png;rounded=1;shadow=0;comic=0;strokeWidth=2;fontSize=22" parent="1" vertex="1">
          <mxGeometry x="520" y="385" width="80" height="80" as="geometry" />
        </mxCell>
        <mxCell id="69ecfefc5c41e42c-2" value="Internet" style="image;html=1;labelBackgroundColor=#ffffff;image=img/lib/clip_art/networking/Cloud_128x128.png;rounded=1;shadow=0;comic=0;strokeWidth=2;fontSize=22;labelPosition=center;verticalLabelPosition=top;align=center;verticalAlign=bottom;" parent="1" vertex="1">
          <mxGeometry x="520" y="170" width="80" height="80" as="geometry" />
        </mxCell>
        <mxCell id="69ecfefc5c41e42c-4" value="10.8.0.4" style="image;html=1;labelBackgroundColor=#ffffff;image=img/lib/clip_art/computers/iPad_128x128.png;rounded=1;shadow=0;comic=0;strokeWidth=2;fontSize=22" parent="1" vertex="1">
          <mxGeometry x="370" y="560" width="80" height="80" as="geometry" />
        </mxCell>
        <mxCell id="69ecfefc5c41e42c-5" value="10.8.0.2" style="image;html=1;labelBackgroundColor=#ffffff;image=img/lib/clip_art/computers/Monitor_Tower_128x128.png;rounded=1;shadow=0;comic=0;strokeWidth=2;fontSize=22" parent="1" vertex="1">
          <mxGeometry x="350" y="260" width="80" height="80" as="geometry" />
        </mxCell>
        <mxCell id="69ecfefc5c41e42c-7" value="10.8.0.5" style="image;html=1;labelBackgroundColor=#ffffff;image=img/lib/clip_art/computers/Workstation_128x128.png;rounded=1;shadow=0;comic=0;strokeWidth=2;fontSize=22" parent="1" vertex="1">
          <mxGeometry x="680" y="560" width="80" height="80" as="geometry" />
        </mxCell>
        <mxCell id="69ecfefc5c41e42c-8" value="10.8.0.6" style="image;html=1;labelBackgroundColor=#ffffff;image=img/lib/clip_art/telecommunication/iPhone_128x128.png;rounded=1;shadow=0;comic=0;strokeWidth=2;fontSize=22" parent="1" vertex="1">
          <mxGeometry x="790" y="425" width="80" height="80" as="geometry" />
        </mxCell>
        <mxCell id="69ecfefc5c41e42c-9" value="10.8.0.7" style="image;html=1;labelBackgroundColor=#ffffff;image=img/lib/clip_art/computers/Netbook_128x128.png;rounded=1;shadow=0;comic=0;strokeColor=#000000;strokeWidth=2;fillColor=#FFFFFF;fontSize=22;fontColor=#000000;" parent="1" vertex="1">
          <mxGeometry x="690" y="270" width="80" height="80" as="geometry" />
        </mxCell>
        <mxCell id="69ecfefc5c41e42c-10" value="10.8.0.3" style="image;html=1;labelBackgroundColor=#ffffff;image=img/lib/clip_art/computers/Netbook_128x128.png;rounded=1;shadow=0;comic=0;strokeWidth=2;fontSize=22" parent="1" vertex="1">
          <mxGeometry x="260" y="410" width="80" height="80" as="geometry" />
        </mxCell>
        <mxCell id="69ecfefc5c41e42c-12" value="" style="html=1;fillColor=#CCCCCC;strokeColor=#6881B3;gradientColor=none;gradientDirection=north;strokeWidth=2;shape=mxgraph.networks.comm_link_edge;html=1;labelBackgroundColor=none;endArrow=none;fontFamily=Verdana;fontSize=22;fontColor=#000000;fontStyle=1;entryX=0;entryY=0;entryDx=0;entryDy=0;" parent="1" source="69ecfefc5c41e42c-5" target="69ecfefc5c41e42c-1" edge="1">
          <mxGeometry width="100" height="100" relative="1" as="geometry">
            <mxPoint x="370" y="401.9565217391305" as="sourcePoint" />
            <mxPoint x="520" y="428.0434782608695" as="targetPoint" />
          </mxGeometry>
        </mxCell>
        <mxCell id="69ecfefc5c41e42c-13" value="" style="html=1;fillColor=#CCCCCC;strokeColor=#6881B3;gradientColor=none;gradientDirection=north;strokeWidth=2;shape=mxgraph.networks.comm_link_edge;html=1;labelBackgroundColor=none;endArrow=none;fontFamily=Verdana;fontSize=22;fontColor=#000000;entryX=0;entryY=0.5;entryDx=0;entryDy=0;" parent="1" source="69ecfefc5c41e42c-10" target="69ecfefc5c41e42c-1" edge="1">
          <mxGeometry width="100" height="100" relative="1" as="geometry">
            <mxPoint x="380" y="411.9565217391305" as="sourcePoint" />
            <mxPoint x="530" y="438.0434782608695" as="targetPoint" />
          </mxGeometry>
        </mxCell>
        <mxCell id="69ecfefc5c41e42c-14" value="" style="html=1;fillColor=#CCCCCC;strokeColor=#6881B3;gradientColor=none;gradientDirection=north;strokeWidth=2;shape=mxgraph.networks.comm_link_edge;html=1;labelBackgroundColor=none;endArrow=none;fontFamily=Verdana;fontSize=22;fontColor=#000000;entryX=0;entryY=1;entryDx=0;entryDy=0;" parent="1" source="69ecfefc5c41e42c-4" target="69ecfefc5c41e42c-1" edge="1">
          <mxGeometry width="100" height="100" relative="1" as="geometry">
            <mxPoint x="390" y="421.9565217391305" as="sourcePoint" />
            <mxPoint x="530" y="500" as="targetPoint" />
          </mxGeometry>
        </mxCell>
        <mxCell id="69ecfefc5c41e42c-15" value="" style="html=1;fillColor=#CCCCCC;strokeColor=#6881B3;gradientColor=none;gradientDirection=north;strokeWidth=2;shape=mxgraph.networks.comm_link_edge;html=1;labelBackgroundColor=none;endArrow=none;fontFamily=Verdana;fontSize=22;fontColor=#000000;entryX=1;entryY=1;entryDx=0;entryDy=0;" parent="1" source="69ecfefc5c41e42c-7" target="69ecfefc5c41e42c-1" edge="1">
          <mxGeometry width="100" height="100" relative="1" as="geometry">
            <mxPoint x="400" y="431.9565217391305" as="sourcePoint" />
            <mxPoint x="550" y="458.0434782608695" as="targetPoint" />
          </mxGeometry>
        </mxCell>
        <mxCell id="69ecfefc5c41e42c-16" value="" style="html=1;fillColor=#CCCCCC;strokeColor=#6881B3;gradientColor=none;gradientDirection=north;strokeWidth=2;shape=mxgraph.networks.comm_link_edge;html=1;labelBackgroundColor=none;endArrow=none;fontFamily=Verdana;fontSize=22;fontColor=#000000;entryX=1;entryY=0.5;entryDx=0;entryDy=0;" parent="1" source="69ecfefc5c41e42c-8" target="69ecfefc5c41e42c-1" edge="1">
          <mxGeometry width="100" height="100" relative="1" as="geometry">
            <mxPoint x="410" y="441.9565217391305" as="sourcePoint" />
            <mxPoint x="560" y="468.0434782608695" as="targetPoint" />
          </mxGeometry>
        </mxCell>
        <mxCell id="zhPg9HmpTkC8xQ5XdoOP-1" value="&lt;b&gt;&lt;font style=&quot;font-size: 36px&quot;&gt;Scheme of the local network&lt;/font&gt;&lt;/b&gt;" style="text;html=1;strokeColor=none;fillColor=none;align=center;verticalAlign=middle;whiteSpace=wrap;rounded=0;" parent="1" vertex="1">
          <mxGeometry x="280" y="60" width="540" height="80" as="geometry" />
        </mxCell>
      </root>
    </mxGraphModel>
  </diagram>
  <diagram id="-iYdc8KpAoDYR4znTglA" name="Page-2">
    <mxGraphModel dx="572" dy="715" grid="1" gridSize="10" guides="1" tooltips="1" connect="1" arrows="1" fold="1" page="1" pageScale="1" pageWidth="850" pageHeight="1100" math="0" shadow="0">
      <root>
        <mxCell id="04m3lhLloG7uBeKBsoJG-0" />
        <mxCell id="04m3lhLloG7uBeKBsoJG-1" parent="04m3lhLloG7uBeKBsoJG-0" />
        <mxCell id="04m3lhLloG7uBeKBsoJG-2" value="client&lt;br&gt;10.8.0.2" style="image;html=1;labelBackgroundColor=#ffffff;image=img/lib/clip_art/computers/Monitor_Tower_128x128.png;rounded=1;shadow=0;comic=0;strokeWidth=2;fontSize=22" vertex="1" parent="04m3lhLloG7uBeKBsoJG-1">
          <mxGeometry x="940" y="415" width="80" height="80" as="geometry" />
        </mxCell>
        <mxCell id="04m3lhLloG7uBeKBsoJG-3" value="client&lt;br&gt;10.8.0.3" style="image;html=1;labelBackgroundColor=#ffffff;image=img/lib/clip_art/computers/Workstation_128x128.png;rounded=1;shadow=0;comic=0;strokeWidth=2;fontSize=22" vertex="1" parent="04m3lhLloG7uBeKBsoJG-1">
          <mxGeometry x="1050" y="455" width="80" height="80" as="geometry" />
        </mxCell>
        <mxCell id="04m3lhLloG7uBeKBsoJG-4" value="&lt;font style=&quot;font-size: 20px&quot;&gt;VPN server&lt;br&gt;10.8.0.1&lt;br&gt;&lt;/font&gt;" style="shape=image;html=1;verticalAlign=top;verticalLabelPosition=bottom;labelBackgroundColor=#ffffff;imageAspect=0;aspect=fixed;image=https://cdn2.iconfinder.com/data/icons/whcompare-isometric-web-hosting-servers/50/secure-server-128.png" vertex="1" parent="04m3lhLloG7uBeKBsoJG-1">
          <mxGeometry x="1490" y="143.86" width="128" height="128" as="geometry" />
        </mxCell>
        <mxCell id="04m3lhLloG7uBeKBsoJG-5" value="" style="curved=1;endArrow=classic;html=1;rounded=0;fontSize=20;strokeWidth=4;entryX=0;entryY=0.75;entryDx=0;entryDy=0;startArrow=none;strokeColor=#4C0099;" edge="1" parent="04m3lhLloG7uBeKBsoJG-1" source="04m3lhLloG7uBeKBsoJG-7" target="04m3lhLloG7uBeKBsoJG-4">
          <mxGeometry width="50" height="50" relative="1" as="geometry">
            <mxPoint x="1100" y="360" as="sourcePoint" />
            <mxPoint x="1150" y="310" as="targetPoint" />
            <Array as="points">
              <mxPoint x="1000" y="260" />
              <mxPoint x="1210" y="200" />
              <mxPoint x="1350" y="230" />
            </Array>
          </mxGeometry>
        </mxCell>
        <mxCell id="04m3lhLloG7uBeKBsoJG-6" value="" style="curved=1;endArrow=classic;html=1;rounded=0;fontSize=20;strokeWidth=4;exitX=0.5;exitY=0;exitDx=0;exitDy=0;entryX=0;entryY=0.5;entryDx=0;entryDy=0;startArrow=none;strokeColor=#4C0099;" edge="1" parent="04m3lhLloG7uBeKBsoJG-1" source="04m3lhLloG7uBeKBsoJG-9" target="04m3lhLloG7uBeKBsoJG-4">
          <mxGeometry width="50" height="50" relative="1" as="geometry">
            <mxPoint x="1100" y="360" as="sourcePoint" />
            <mxPoint x="1150" y="310" as="targetPoint" />
            <Array as="points">
              <mxPoint x="1090" y="280" />
              <mxPoint x="1180" y="208" />
              <mxPoint x="1400" y="210" />
            </Array>
          </mxGeometry>
        </mxCell>
        <mxCell id="04m3lhLloG7uBeKBsoJG-7" value="" style="sketch=0;outlineConnect=0;fontColor=#232F3E;gradientColor=none;fillColor=#4D27AA;strokeColor=none;dashed=0;verticalLabelPosition=bottom;verticalAlign=top;align=center;html=1;fontSize=12;fontStyle=0;aspect=fixed;pointerEvents=1;shape=mxgraph.aws4.vpn_connection;" vertex="1" parent="04m3lhLloG7uBeKBsoJG-1">
          <mxGeometry x="959.49" y="325" width="41.03" height="45.71" as="geometry" />
        </mxCell>
        <mxCell id="04m3lhLloG7uBeKBsoJG-8" value="" style="edgeStyle=orthogonalEdgeStyle;rounded=0;orthogonalLoop=1;jettySize=auto;html=1;fontSize=20;strokeWidth=4;strokeColor=#4C0099;" edge="1" parent="04m3lhLloG7uBeKBsoJG-1" source="04m3lhLloG7uBeKBsoJG-9" target="04m3lhLloG7uBeKBsoJG-3">
          <mxGeometry relative="1" as="geometry" />
        </mxCell>
        <mxCell id="04m3lhLloG7uBeKBsoJG-9" value="" style="sketch=0;outlineConnect=0;fontColor=#232F3E;gradientColor=none;fillColor=#4D27AA;strokeColor=none;dashed=0;verticalLabelPosition=bottom;verticalAlign=top;align=center;html=1;fontSize=12;fontStyle=0;aspect=fixed;pointerEvents=1;shape=mxgraph.aws4.vpn_connection;" vertex="1" parent="04m3lhLloG7uBeKBsoJG-1">
          <mxGeometry x="1070" y="355" width="40" height="44.57" as="geometry" />
        </mxCell>
        <mxCell id="04m3lhLloG7uBeKBsoJG-10" value="client&lt;br&gt;10.8.0.4" style="image;html=1;labelBackgroundColor=#ffffff;image=img/lib/clip_art/computers/Netbook_128x128.png;rounded=1;shadow=0;comic=0;strokeColor=#000000;strokeWidth=2;fillColor=#FFFFFF;fontSize=22;fontColor=#000000;" vertex="1" parent="04m3lhLloG7uBeKBsoJG-1">
          <mxGeometry x="1170" y="470" width="80" height="80" as="geometry" />
        </mxCell>
        <mxCell id="04m3lhLloG7uBeKBsoJG-11" value="" style="curved=1;endArrow=classic;html=1;rounded=0;fontSize=20;strokeWidth=4;entryX=0;entryY=0.25;entryDx=0;entryDy=0;startArrow=none;strokeColor=#4C0099;" edge="1" parent="04m3lhLloG7uBeKBsoJG-1" source="04m3lhLloG7uBeKBsoJG-13" target="04m3lhLloG7uBeKBsoJG-4">
          <mxGeometry width="50" height="50" relative="1" as="geometry">
            <mxPoint x="1310" y="420" as="sourcePoint" />
            <mxPoint x="1360" y="370" as="targetPoint" />
            <Array as="points">
              <mxPoint x="1200" y="260" />
              <mxPoint x="1290" y="180" />
            </Array>
          </mxGeometry>
        </mxCell>
        <mxCell id="04m3lhLloG7uBeKBsoJG-12" value="" style="edgeStyle=orthogonalEdgeStyle;rounded=0;orthogonalLoop=1;jettySize=auto;html=1;fontSize=20;strokeWidth=4;strokeColor=#4C0099;" edge="1" parent="04m3lhLloG7uBeKBsoJG-1" source="04m3lhLloG7uBeKBsoJG-13" target="04m3lhLloG7uBeKBsoJG-10">
          <mxGeometry relative="1" as="geometry">
            <Array as="points">
              <mxPoint x="1210" y="480" />
              <mxPoint x="1210" y="480" />
            </Array>
          </mxGeometry>
        </mxCell>
        <mxCell id="04m3lhLloG7uBeKBsoJG-13" value="" style="sketch=0;outlineConnect=0;fontColor=#232F3E;gradientColor=none;fillColor=#4D27AA;strokeColor=none;dashed=0;verticalLabelPosition=bottom;verticalAlign=top;align=center;html=1;fontSize=12;fontStyle=0;aspect=fixed;pointerEvents=1;shape=mxgraph.aws4.vpn_connection;" vertex="1" parent="04m3lhLloG7uBeKBsoJG-1">
          <mxGeometry x="1190" y="385.43" width="40" height="44.57" as="geometry" />
        </mxCell>
        <mxCell id="04m3lhLloG7uBeKBsoJG-15" value="" style="image;html=1;image=img/lib/clip_art/networking/Firewall-page1_128x128.png;fontSize=20;" vertex="1" parent="04m3lhLloG7uBeKBsoJG-1">
          <mxGeometry x="1330" y="140" width="100" height="131.86" as="geometry" />
        </mxCell>
        <mxCell id="04m3lhLloG7uBeKBsoJG-16" value="" style="curved=1;endArrow=classic;html=1;rounded=0;fontSize=20;strokeWidth=4;entryX=0.5;entryY=0;entryDx=0;entryDy=0;strokeColor=#4C0099;" edge="1" parent="04m3lhLloG7uBeKBsoJG-1" source="04m3lhLloG7uBeKBsoJG-7" target="04m3lhLloG7uBeKBsoJG-2">
          <mxGeometry width="50" height="50" relative="1" as="geometry">
            <mxPoint x="980" y="385" as="sourcePoint" />
            <mxPoint x="840" y="320.71" as="targetPoint" />
            <Array as="points" />
          </mxGeometry>
        </mxCell>
        <mxCell id="04m3lhLloG7uBeKBsoJG-17" value="&lt;font style=&quot;font-size: 36px&quot;&gt;Scheme of the local network&lt;/font&gt;" style="text;html=1;strokeColor=none;fillColor=none;align=center;verticalAlign=middle;whiteSpace=wrap;rounded=0;fontSize=20;" vertex="1" parent="04m3lhLloG7uBeKBsoJG-1">
          <mxGeometry x="1290" y="375" width="220" height="120" as="geometry" />
        </mxCell>
        <mxCell id="khj5KbcPd4QzqfG4mPEK-4" value="" style="aspect=fixed;perimeter=ellipsePerimeter;html=1;align=center;shadow=0;dashed=0;spacingTop=3;image;image=img/lib/active_directory/internet_cloud.svg;fontSize=28;" vertex="1" parent="04m3lhLloG7uBeKBsoJG-1">
          <mxGeometry x="958" y="120" width="317.46" height="200" as="geometry" />
        </mxCell>
        <mxCell id="khj5KbcPd4QzqfG4mPEK-5" value="&lt;font style=&quot;font-size: 28px&quot;&gt;Crazy Internet&lt;/font&gt;" style="text;html=1;strokeColor=none;fillColor=none;align=center;verticalAlign=middle;whiteSpace=wrap;rounded=0;fontSize=36;" vertex="1" parent="04m3lhLloG7uBeKBsoJG-1">
          <mxGeometry x="986.73" y="200" width="260" height="40" as="geometry" />
        </mxCell>
      </root>
    </mxGraphModel>
  </diagram>
</mxfile>
